<svg width="122" height="125" viewBox="0 0 122 125" fill="none" xmlns="http://www.w3.org/2000/svg">
<path d="M121.753 28.2735C121.734 28.2168 121.711 28.1614 121.685 28.1076C121.65 28.0026 121.606 27.9006 121.555 27.8025C121.516 27.7415 121.472 27.6836 121.423 27.6291C121.37 27.549 121.311 27.4724 121.248 27.3997C121.192 27.346 121.121 27.3021 121.06 27.2532C120.99 27.1933 120.917 27.1379 120.84 27.0873L97.3438 13.5597C97.047 13.3883 96.7102 13.2981 96.3674 13.2981C96.0247 13.2981 95.6879 13.3883 95.3911 13.5597L71.89 27.0946C71.8145 27.1457 71.7428 27.202 71.6752 27.263C71.6086 27.3077 71.545 27.3566 71.4848 27.4095C71.4208 27.4808 71.3621 27.5567 71.309 27.6365C71.2675 27.695 71.2138 27.7463 71.1772 27.8098C71.1279 27.9084 71.0854 28.0103 71.0503 28.1149C71.0308 28.171 70.999 28.2223 70.9819 28.2809C70.9372 28.4464 70.9142 28.6171 70.9136 28.7886V54.4768L51.3326 65.7513V15.4856C51.333 15.3132 51.31 15.1416 51.2642 14.9754C51.2496 14.9169 51.2154 14.8656 51.1959 14.8095C51.1618 14.7053 51.1193 14.6041 51.069 14.5068C51.0348 14.4433 50.9786 14.3921 50.9371 14.331C50.8835 14.2509 50.8248 14.1743 50.7614 14.1016C50.7005 14.0495 50.637 14.0006 50.571 13.9551C50.5026 13.8958 50.4309 13.8404 50.3562 13.7892L26.8526 0.261616C26.5558 0.0902284 26.2191 0 25.8763 0C25.5335 0 25.1968 0.0902284 24.8999 0.261616L1.40124 13.7892C1.32495 13.839 1.25308 13.8954 1.18644 13.9576C1.11912 14.0023 1.05471 14.0512 0.993605 14.104C0.930473 14.1755 0.872556 14.2513 0.820301 14.331C0.776364 14.3921 0.722664 14.4433 0.68605 14.5068C0.636031 14.604 0.594385 14.7052 0.561564 14.8095C0.534904 14.8626 0.511271 14.9172 0.490777 14.973C0.445872 15.1402 0.422897 15.3125 0.422432 15.4856V95.9625C0.421496 96.3062 0.511281 96.6441 0.682715 96.9419C0.85415 97.2398 1.10116 97.4871 1.3988 97.659L48.3864 124.714C48.4909 124.767 48.5994 124.811 48.711 124.846C48.7623 124.865 48.8111 124.895 48.8648 124.909C49.1926 124.997 49.5378 124.997 49.8656 124.909C49.9144 124.897 49.9559 124.87 49.9998 124.856C50.1177 124.819 50.232 124.771 50.3416 124.714L97.3438 97.659C97.6414 97.4871 97.8885 97.2398 98.0599 96.9419C98.2313 96.6441 98.3211 96.3062 98.3202 95.9625V70.2695L120.835 57.3058C121.135 57.1329 121.383 56.8836 121.554 56.5834C121.726 56.2832 121.815 55.9429 121.812 55.5971V28.7837C121.813 28.6119 121.793 28.4406 121.753 28.2735ZM25.8738 4.21834L45.4475 15.4832L25.8714 26.7553L6.30015 15.4856L25.8738 4.21834ZM47.4149 18.8638V68.0043L36.0573 74.5435L27.8339 79.2789V30.1457L39.1915 23.6065L47.4149 18.8638ZM47.4149 119.62L4.33766 94.8299V18.8736L12.5611 23.6041L23.9162 30.1457V82.6693C23.9212 82.7431 23.931 82.8165 23.9455 82.889C23.9514 82.9858 23.9644 83.0821 23.9846 83.177C24.0094 83.2527 24.0404 83.3262 24.0773 83.3967C24.1045 83.4808 24.1388 83.5625 24.1798 83.6408C24.225 83.707 24.2739 83.7706 24.3263 83.8312C24.3751 83.9032 24.429 83.9717 24.4874 84.0362C24.5435 84.0899 24.6143 84.129 24.6754 84.1778C24.742 84.2357 24.8121 84.2895 24.8853 84.3389L47.3881 97.0756L47.4149 119.62ZM49.3676 93.7047L29.8257 82.6425L50.3513 70.826L72.8712 57.8623L92.4302 69.1222L78.0777 77.3139L49.3676 93.7047ZM94.4074 94.8202L51.3277 119.632V97.1L83.2353 78.8908L94.4074 72.5078V94.8202ZM94.4074 65.7416L86.184 61.0233L74.8264 54.4841V32.1692L83.0498 36.9046L94.4074 43.4487V65.7416ZM96.3601 40.0436L76.784 28.7739L96.3601 17.5067L115.931 28.7715L96.3601 40.0436ZM98.3129 65.7416V43.4487L109.695 36.9046L117.916 32.1692V54.4768L98.3129 65.7416Z" fill="#0E3C8A"/>
</svg>
