<svg width="644" height="371" viewBox="0 0 644 371" fill="none" xmlns="http://www.w3.org/2000/svg">
<rect x="2" y="37" width="500" height="16" fill="#2E7CDF"/>
<rect x="1" y="36" width="639" height="18" rx="6" stroke="#2E7CDF" stroke-width="2"/>
<path d="M16.304 9.272V11.048H9.032V16.688H14.936V18.464H9.032V26H6.848V9.272H16.304ZM21.1258 14.984C21.5098 14.232 22.0538 13.648 22.7578 13.232C23.4778 12.816 24.3498 12.608 25.3738 12.608V14.864H24.7978C22.3498 14.864 21.1258 16.192 21.1258 18.848V26H18.9418V12.848H21.1258V14.984ZM33.6309 26.216C32.3989 26.216 31.2789 25.936 30.2709 25.376C29.2789 24.816 28.4949 24.024 27.9189 23C27.3589 21.96 27.0789 20.76 27.0789 19.4C27.0789 18.056 27.3669 16.872 27.9429 15.848C28.5349 14.808 29.3349 14.016 30.3429 13.472C31.3509 12.912 32.4789 12.632 33.7269 12.632C34.9749 12.632 36.1029 12.912 37.1109 13.472C38.1189 14.016 38.9109 14.8 39.4869 15.824C40.0789 16.848 40.3749 18.04 40.3749 19.4C40.3749 20.76 40.0709 21.96 39.4629 23C38.8709 24.024 38.0629 24.816 37.0389 25.376C36.0149 25.936 34.8789 26.216 33.6309 26.216ZM33.6309 24.296C34.4149 24.296 35.1509 24.112 35.8389 23.744C36.5269 23.376 37.0789 22.824 37.4949 22.088C37.9269 21.352 38.1429 20.456 38.1429 19.4C38.1429 18.344 37.9349 17.448 37.5189 16.712C37.1029 15.976 36.5589 15.432 35.8869 15.08C35.2149 14.712 34.4869 14.528 33.7029 14.528C32.9029 14.528 32.1669 14.712 31.4949 15.08C30.8389 15.432 30.3109 15.976 29.9109 16.712C29.5109 17.448 29.3109 18.344 29.3109 19.4C29.3109 20.472 29.5029 21.376 29.8869 22.112C30.2869 22.848 30.8149 23.4 31.4709 23.768C32.1269 24.12 32.8469 24.296 33.6309 24.296ZM49.6544 12.608C51.2544 12.608 52.5504 13.096 53.5424 14.072C54.5344 15.032 55.0304 16.424 55.0304 18.248V26H52.8704V18.56C52.8704 17.248 52.5424 16.248 51.8864 15.56C51.2304 14.856 50.3344 14.504 49.1984 14.504C48.0464 14.504 47.1264 14.864 46.4384 15.584C45.7664 16.304 45.4304 17.352 45.4304 18.728V26H43.2464V12.848H45.4304V14.72C45.8624 14.048 46.4464 13.528 47.1824 13.16C47.9344 12.792 48.7584 12.608 49.6544 12.608ZM61.262 14.648V22.4C61.262 23.04 61.398 23.496 61.67 23.768C61.942 24.024 62.414 24.152 63.086 24.152H64.694V26H62.726C61.51 26 60.598 25.72 59.99 25.16C59.382 24.6 59.078 23.68 59.078 22.4V14.648H57.374V12.848H59.078V9.536H61.262V12.848H64.694V14.648H61.262ZM76.4602 16.28V18.128H66.8842V16.28H76.4602ZM92.5589 18.92C92.5589 19.336 92.5349 19.776 92.4869 20.24H81.9749C82.0549 21.536 82.4949 22.552 83.2949 23.288C84.1109 24.008 85.0949 24.368 86.2469 24.368C87.1909 24.368 87.9749 24.152 88.5989 23.72C89.2389 23.272 89.6869 22.68 89.9429 21.944H92.2949C91.9429 23.208 91.2389 24.24 90.1829 25.04C89.1269 25.824 87.8149 26.216 86.2469 26.216C84.9989 26.216 83.8789 25.936 82.8869 25.376C81.9109 24.816 81.1429 24.024 80.5829 23C80.0229 21.96 79.7429 20.76 79.7429 19.4C79.7429 18.04 80.0149 16.848 80.5589 15.824C81.1029 14.8 81.8629 14.016 82.8389 13.472C83.8309 12.912 84.9669 12.632 86.2469 12.632C87.4949 12.632 88.5989 12.904 89.5589 13.448C90.5189 13.992 91.2549 14.744 91.7669 15.704C92.2949 16.648 92.5589 17.72 92.5589 18.92ZM90.3029 18.464C90.3029 17.632 90.1189 16.92 89.7509 16.328C89.3829 15.72 88.8789 15.264 88.2389 14.96C87.6149 14.64 86.9189 14.48 86.1509 14.48C85.0469 14.48 84.1029 14.832 83.3189 15.536C82.5509 16.24 82.1109 17.216 81.9989 18.464H90.3029ZM101.85 12.608C103.45 12.608 104.746 13.096 105.738 14.072C106.73 15.032 107.226 16.424 107.226 18.248V26H105.066V18.56C105.066 17.248 104.738 16.248 104.082 15.56C103.426 14.856 102.53 14.504 101.394 14.504C100.242 14.504 99.3218 14.864 98.6338 15.584C97.9618 16.304 97.6258 17.352 97.6258 18.728V26H95.4418V12.848H97.6258V14.72C98.0578 14.048 98.6418 13.528 99.3778 13.16C100.13 12.792 100.954 12.608 101.85 12.608ZM109.977 19.376C109.977 18.032 110.249 16.856 110.793 15.848C111.337 14.824 112.081 14.032 113.025 13.472C113.985 12.912 115.057 12.632 116.241 12.632C117.265 12.632 118.217 12.872 119.097 13.352C119.977 13.816 120.649 14.432 121.113 15.2V8.24H123.321V26H121.113V23.528C120.681 24.312 120.041 24.96 119.193 25.472C118.345 25.968 117.353 26.216 116.217 26.216C115.049 26.216 113.985 25.928 113.025 25.352C112.081 24.776 111.337 23.968 110.793 22.928C110.249 21.888 109.977 20.704 109.977 19.376ZM121.113 19.4C121.113 18.408 120.913 17.544 120.513 16.808C120.113 16.072 119.569 15.512 118.881 15.128C118.209 14.728 117.465 14.528 116.649 14.528C115.833 14.528 115.089 14.72 114.417 15.104C113.745 15.488 113.209 16.048 112.809 16.784C112.409 17.52 112.209 18.384 112.209 19.376C112.209 20.384 112.409 21.264 112.809 22.016C113.209 22.752 113.745 23.32 114.417 23.72C115.089 24.104 115.833 24.296 116.649 24.296C117.465 24.296 118.209 24.104 118.881 23.72C119.569 23.32 120.113 22.752 120.513 22.016C120.913 21.264 121.113 20.392 121.113 19.4Z" fill="black"/>
<rect x="5" y="116" width="500" height="16" fill="#2E7CDF"/>
<rect x="4" y="115" width="639" height="18" rx="6" stroke="#2E7CDF" stroke-width="2"/>
<path d="M18.224 96.384C18.832 96.48 19.384 96.728 19.88 97.128C20.392 97.528 20.792 98.024 21.08 98.616C21.384 99.208 21.536 99.84 21.536 100.512C21.536 101.36 21.32 102.128 20.888 102.816C20.456 103.488 19.824 104.024 18.992 104.424C18.176 104.808 17.208 105 16.088 105H9.848V88.272H15.848C16.984 88.272 17.952 88.464 18.752 88.848C19.552 89.216 20.152 89.72 20.552 90.36C20.952 91 21.152 91.72 21.152 92.52C21.152 93.512 20.88 94.336 20.336 94.992C19.808 95.632 19.104 96.096 18.224 96.384ZM12.032 95.496H15.704C16.728 95.496 17.52 95.256 18.08 94.776C18.64 94.296 18.92 93.632 18.92 92.784C18.92 91.936 18.64 91.272 18.08 90.792C17.52 90.312 16.712 90.072 15.656 90.072H12.032V95.496ZM15.896 103.2C16.984 103.2 17.832 102.944 18.44 102.432C19.048 101.92 19.352 101.208 19.352 100.296C19.352 99.368 19.032 98.64 18.392 98.112C17.752 97.568 16.896 97.296 15.824 97.296H12.032V103.2H15.896ZM23.7508 98.376C23.7508 97.032 24.0228 95.856 24.5668 94.848C25.1108 93.824 25.8548 93.032 26.7988 92.472C27.7588 91.912 28.8228 91.632 29.9908 91.632C31.1428 91.632 32.1428 91.88 32.9908 92.376C33.8388 92.872 34.4708 93.496 34.8868 94.248V91.848H37.0948V105H34.8868V102.552C34.4548 103.32 33.8068 103.96 32.9428 104.472C32.0948 104.968 31.1028 105.216 29.9668 105.216C28.7988 105.216 27.7428 104.928 26.7988 104.352C25.8548 103.776 25.1108 102.968 24.5668 101.928C24.0228 100.888 23.7508 99.704 23.7508 98.376ZM34.8868 98.4C34.8868 97.408 34.6868 96.544 34.2868 95.808C33.8868 95.072 33.3428 94.512 32.6548 94.128C31.9828 93.728 31.2388 93.528 30.4228 93.528C29.6068 93.528 28.8628 93.72 28.1908 94.104C27.5188 94.488 26.9828 95.048 26.5828 95.784C26.1828 96.52 25.9828 97.384 25.9828 98.376C25.9828 99.384 26.1828 100.264 26.5828 101.016C26.9828 101.752 27.5188 102.32 28.1908 102.72C28.8628 103.104 29.6068 103.296 30.4228 103.296C31.2388 103.296 31.9828 103.104 32.6548 102.72C33.3428 102.32 33.8868 101.752 34.2868 101.016C34.6868 100.264 34.8868 99.392 34.8868 98.4ZM39.9695 98.4C39.9695 97.04 40.2415 95.856 40.7855 94.848C41.3295 93.824 42.0815 93.032 43.0415 92.472C44.0175 91.912 45.1295 91.632 46.3775 91.632C47.9935 91.632 49.3215 92.024 50.3615 92.808C51.4175 93.592 52.1135 94.68 52.4495 96.072H50.0975C49.8735 95.272 49.4335 94.64 48.7775 94.176C48.1375 93.712 47.3375 93.48 46.3775 93.48C45.1295 93.48 44.1215 93.912 43.3535 94.776C42.5855 95.624 42.2015 96.832 42.2015 98.4C42.2015 99.984 42.5855 101.208 43.3535 102.072C44.1215 102.936 45.1295 103.368 46.3775 103.368C47.3375 103.368 48.1375 103.144 48.7775 102.696C49.4175 102.248 49.8575 101.608 50.0975 100.776H52.4495C52.0975 102.12 51.3935 103.2 50.3375 104.016C49.2815 104.816 47.9615 105.216 46.3775 105.216C45.1295 105.216 44.0175 104.936 43.0415 104.376C42.0815 103.816 41.3295 103.024 40.7855 102C40.2415 100.976 39.9695 99.776 39.9695 98.4ZM62.7076 105L57.5476 99.192V105H55.3636V87.24H57.5476V97.68L62.6116 91.848H65.6596L59.4676 98.4L65.6836 105H62.7076ZM76.8352 95.28V97.128H67.2592V95.28H76.8352ZM92.9339 97.92C92.9339 98.336 92.9099 98.776 92.8619 99.24H82.3499C82.4299 100.536 82.8699 101.552 83.6699 102.288C84.4859 103.008 85.4699 103.368 86.6219 103.368C87.5659 103.368 88.3499 103.152 88.9739 102.72C89.6139 102.272 90.0619 101.68 90.3179 100.944H92.6699C92.3179 102.208 91.6139 103.24 90.5579 104.04C89.5019 104.824 88.1899 105.216 86.6219 105.216C85.3739 105.216 84.2539 104.936 83.2619 104.376C82.2859 103.816 81.5179 103.024 80.9579 102C80.3979 100.96 80.1179 99.76 80.1179 98.4C80.1179 97.04 80.3899 95.848 80.9339 94.824C81.4779 93.8 82.2379 93.016 83.2139 92.472C84.2059 91.912 85.3419 91.632 86.6219 91.632C87.8699 91.632 88.9739 91.904 89.9339 92.448C90.8939 92.992 91.6299 93.744 92.1419 94.704C92.6699 95.648 92.9339 96.72 92.9339 97.92ZM90.6779 97.464C90.6779 96.632 90.4939 95.92 90.1259 95.328C89.7579 94.72 89.2539 94.264 88.6139 93.96C87.9899 93.64 87.2939 93.48 86.5259 93.48C85.4219 93.48 84.4779 93.832 83.6939 94.536C82.9259 95.24 82.4859 96.216 82.3739 97.464H90.6779ZM102.225 91.608C103.825 91.608 105.121 92.096 106.113 93.072C107.105 94.032 107.601 95.424 107.601 97.248V105H105.441V97.56C105.441 96.248 105.113 95.248 104.457 94.56C103.801 93.856 102.905 93.504 101.769 93.504C100.617 93.504 99.6968 93.864 99.0088 94.584C98.3368 95.304 98.0008 96.352 98.0008 97.728V105H95.8168V91.848H98.0008V93.72C98.4328 93.048 99.0168 92.528 99.7528 92.16C100.505 91.792 101.329 91.608 102.225 91.608ZM110.352 98.376C110.352 97.032 110.624 95.856 111.168 94.848C111.712 93.824 112.456 93.032 113.4 92.472C114.36 91.912 115.432 91.632 116.616 91.632C117.64 91.632 118.592 91.872 119.472 92.352C120.352 92.816 121.024 93.432 121.488 94.2V87.24H123.696V105H121.488V102.528C121.056 103.312 120.416 103.96 119.568 104.472C118.72 104.968 117.728 105.216 116.592 105.216C115.424 105.216 114.36 104.928 113.4 104.352C112.456 103.776 111.712 102.968 111.168 101.928C110.624 100.888 110.352 99.704 110.352 98.376ZM121.488 98.4C121.488 97.408 121.288 96.544 120.888 95.808C120.488 95.072 119.944 94.512 119.256 94.128C118.584 93.728 117.84 93.528 117.024 93.528C116.208 93.528 115.464 93.72 114.792 94.104C114.12 94.488 113.584 95.048 113.184 95.784C112.784 96.52 112.584 97.384 112.584 98.376C112.584 99.384 112.784 100.264 113.184 101.016C113.584 101.752 114.12 102.32 114.792 102.72C115.464 103.104 116.208 103.296 117.024 103.296C117.84 103.296 118.584 103.104 119.256 102.72C119.944 102.32 120.488 101.752 120.888 101.016C121.288 100.264 121.488 99.392 121.488 98.4Z" fill="black"/>
<rect x="2" y="195" width="450" height="16" fill="#2E7CDF"/>
<rect x="1" y="194" width="639" height="18" rx="6" stroke="#2E7CDF" stroke-width="2"/>
<path d="M8.984 167.272V177.856C8.984 179.344 9.344 180.448 10.064 181.168C10.8 181.888 11.816 182.248 13.112 182.248C14.392 182.248 15.392 181.888 16.112 181.168C16.848 180.448 17.216 179.344 17.216 177.856V167.272H19.4V177.832C19.4 179.224 19.12 180.4 18.56 181.36C18 182.304 17.24 183.008 16.28 183.472C15.336 183.936 14.272 184.168 13.088 184.168C11.904 184.168 10.832 183.936 9.872 183.472C8.928 183.008 8.176 182.304 7.616 181.36C7.072 180.4 6.8 179.224 6.8 177.832V167.272H8.984ZM25.2273 167.272V184H23.0433V167.272H25.2273ZM37.1096 161.392L30.5336 188.08H28.3736L34.9256 161.392H37.1096ZM42.4996 167.272V177.856C42.4996 179.344 42.8596 180.448 43.5796 181.168C44.3156 181.888 45.3316 182.248 46.6276 182.248C47.9076 182.248 48.9076 181.888 49.6276 181.168C50.3636 180.448 50.7316 179.344 50.7316 177.856V167.272H52.9156V177.832C52.9156 179.224 52.6356 180.4 52.0756 181.36C51.5156 182.304 50.7556 183.008 49.7956 183.472C48.8516 183.936 47.7876 184.168 46.6036 184.168C45.4196 184.168 44.3476 183.936 43.3876 183.472C42.4436 183.008 41.6916 182.304 41.1316 181.36C40.5876 180.4 40.3156 179.224 40.3156 177.832V167.272H42.4996ZM63.3989 175.648L68.5349 184H66.0629L62.0549 177.472L58.2389 184H55.8149L60.9269 175.648L55.7909 167.272H58.2389L62.2709 173.824L66.1109 167.272H68.5589L63.3989 175.648ZM83.0716 167.272C84.8956 167.272 86.4716 167.616 87.7996 168.304C89.1436 168.976 90.1676 169.944 90.8716 171.208C91.5916 172.472 91.9516 173.96 91.9516 175.672C91.9516 177.384 91.5916 178.872 90.8716 180.136C90.1676 181.384 89.1436 182.344 87.7996 183.016C86.4716 183.672 84.8956 184 83.0716 184H77.8636V167.272H83.0716ZM83.0716 182.2C85.2316 182.2 86.8796 181.632 88.0156 180.496C89.1516 179.344 89.7196 177.736 89.7196 175.672C89.7196 173.592 89.1436 171.968 87.9916 170.8C86.8556 169.632 85.2156 169.048 83.0716 169.048H80.0476V182.2H83.0716ZM106.832 176.92C106.832 177.336 106.808 177.776 106.76 178.24H96.2484C96.3284 179.536 96.7684 180.552 97.5684 181.288C98.3844 182.008 99.3684 182.368 100.52 182.368C101.464 182.368 102.248 182.152 102.872 181.72C103.512 181.272 103.96 180.68 104.216 179.944H106.568C106.216 181.208 105.512 182.24 104.456 183.04C103.4 183.824 102.088 184.216 100.52 184.216C99.2724 184.216 98.1524 183.936 97.1604 183.376C96.1844 182.816 95.4164 182.024 94.8564 181C94.2964 179.96 94.0164 178.76 94.0164 177.4C94.0164 176.04 94.2884 174.848 94.8324 173.824C95.3764 172.8 96.1364 172.016 97.1124 171.472C98.1044 170.912 99.2404 170.632 100.52 170.632C101.768 170.632 102.872 170.904 103.832 171.448C104.792 171.992 105.528 172.744 106.04 173.704C106.568 174.648 106.832 175.72 106.832 176.92ZM104.576 176.464C104.576 175.632 104.392 174.92 104.024 174.328C103.656 173.72 103.152 173.264 102.512 172.96C101.888 172.64 101.192 172.48 100.424 172.48C99.3204 172.48 98.3764 172.832 97.5924 173.536C96.8244 174.24 96.3844 175.216 96.2724 176.464H104.576ZM114.371 184.216C113.363 184.216 112.459 184.048 111.659 183.712C110.859 183.36 110.227 182.88 109.763 182.272C109.299 181.648 109.043 180.936 108.995 180.136H111.251C111.315 180.792 111.619 181.328 112.163 181.744C112.723 182.16 113.451 182.368 114.347 182.368C115.179 182.368 115.835 182.184 116.315 181.816C116.795 181.448 117.035 180.984 117.035 180.424C117.035 179.848 116.779 179.424 116.267 179.152C115.755 178.864 114.963 178.584 113.891 178.312C112.915 178.056 112.115 177.8 111.491 177.544C110.883 177.272 110.355 176.88 109.907 176.368C109.475 175.84 109.259 175.152 109.259 174.304C109.259 173.632 109.459 173.016 109.859 172.456C110.259 171.896 110.827 171.456 111.563 171.136C112.299 170.8 113.139 170.632 114.083 170.632C115.539 170.632 116.715 171 117.611 171.736C118.507 172.472 118.987 173.48 119.051 174.76H116.867C116.819 174.072 116.539 173.52 116.027 173.104C115.531 172.688 114.859 172.48 114.011 172.48C113.227 172.48 112.603 172.648 112.139 172.984C111.675 173.32 111.443 173.76 111.443 174.304C111.443 174.736 111.579 175.096 111.851 175.384C112.139 175.656 112.491 175.88 112.907 176.056C113.339 176.216 113.931 176.4 114.683 176.608C115.627 176.864 116.395 177.12 116.987 177.376C117.579 177.616 118.083 177.984 118.499 178.48C118.931 178.976 119.155 179.624 119.171 180.424C119.171 181.144 118.971 181.792 118.571 182.368C118.171 182.944 117.603 183.4 116.867 183.736C116.147 184.056 115.315 184.216 114.371 184.216ZM123.382 168.712C122.966 168.712 122.614 168.568 122.326 168.28C122.038 167.992 121.894 167.64 121.894 167.224C121.894 166.808 122.038 166.456 122.326 166.168C122.614 165.88 122.966 165.736 123.382 165.736C123.782 165.736 124.118 165.88 124.39 166.168C124.678 166.456 124.822 166.808 124.822 167.224C124.822 167.64 124.678 167.992 124.39 168.28C124.118 168.568 123.782 168.712 123.382 168.712ZM124.438 170.848V184H122.254V170.848H124.438ZM133.585 170.632C134.721 170.632 135.713 170.88 136.561 171.376C137.425 171.872 138.065 172.496 138.481 173.248V170.848H140.689V184.288C140.689 185.488 140.433 186.552 139.921 187.48C139.409 188.424 138.673 189.16 137.713 189.688C136.769 190.216 135.665 190.48 134.401 190.48C132.673 190.48 131.233 190.072 130.081 189.256C128.929 188.44 128.249 187.328 128.041 185.92H130.201C130.441 186.72 130.937 187.36 131.689 187.84C132.441 188.336 133.345 188.584 134.401 188.584C135.601 188.584 136.577 188.208 137.329 187.456C138.097 186.704 138.481 185.648 138.481 184.288V181.528C138.049 182.296 137.409 182.936 136.561 183.448C135.713 183.96 134.721 184.216 133.585 184.216C132.417 184.216 131.353 183.928 130.393 183.352C129.449 182.776 128.705 181.968 128.161 180.928C127.617 179.888 127.345 178.704 127.345 177.376C127.345 176.032 127.617 174.856 128.161 173.848C128.705 172.824 129.449 172.032 130.393 171.472C131.353 170.912 132.417 170.632 133.585 170.632ZM138.481 177.4C138.481 176.408 138.281 175.544 137.881 174.808C137.481 174.072 136.937 173.512 136.249 173.128C135.577 172.728 134.833 172.528 134.017 172.528C133.201 172.528 132.457 172.72 131.785 173.104C131.113 173.488 130.577 174.048 130.177 174.784C129.777 175.52 129.577 176.384 129.577 177.376C129.577 178.384 129.777 179.264 130.177 180.016C130.577 180.752 131.113 181.32 131.785 181.72C132.457 182.104 133.201 182.296 134.017 182.296C134.833 182.296 135.577 182.104 136.249 181.72C136.937 181.32 137.481 180.752 137.881 180.016C138.281 179.264 138.481 178.392 138.481 177.4ZM150.787 170.608C152.387 170.608 153.683 171.096 154.675 172.072C155.667 173.032 156.163 174.424 156.163 176.248V184H154.003V176.56C154.003 175.248 153.675 174.248 153.019 173.56C152.363 172.856 151.467 172.504 150.331 172.504C149.179 172.504 148.259 172.864 147.571 173.584C146.899 174.304 146.563 175.352 146.563 176.728V184H144.379V170.848H146.563V172.72C146.995 172.048 147.579 171.528 148.315 171.16C149.067 170.792 149.891 170.608 150.787 170.608ZM171.731 176.92C171.731 177.336 171.707 177.776 171.659 178.24H161.147C161.227 179.536 161.667 180.552 162.467 181.288C163.283 182.008 164.267 182.368 165.419 182.368C166.363 182.368 167.147 182.152 167.771 181.72C168.411 181.272 168.859 180.68 169.115 179.944H171.467C171.115 181.208 170.411 182.24 169.355 183.04C168.299 183.824 166.987 184.216 165.419 184.216C164.171 184.216 163.051 183.936 162.059 183.376C161.083 182.816 160.315 182.024 159.755 181C159.195 179.96 158.915 178.76 158.915 177.4C158.915 176.04 159.187 174.848 159.731 173.824C160.275 172.8 161.035 172.016 162.011 171.472C163.003 170.912 164.139 170.632 165.419 170.632C166.667 170.632 167.771 170.904 168.731 171.448C169.691 171.992 170.427 172.744 170.939 173.704C171.467 174.648 171.731 175.72 171.731 176.92ZM169.475 176.464C169.475 175.632 169.291 174.92 168.923 174.328C168.555 173.72 168.051 173.264 167.411 172.96C166.787 172.64 166.091 172.48 165.323 172.48C164.219 172.48 163.275 172.832 162.491 173.536C161.723 174.24 161.283 175.216 161.171 176.464H169.475ZM176.798 172.984C177.182 172.232 177.726 171.648 178.43 171.232C179.15 170.816 180.022 170.608 181.046 170.608V172.864H180.47C178.022 172.864 176.798 174.192 176.798 176.848V184H174.614V170.848H176.798V172.984Z" fill="black"/>
<rect x="5" y="274" width="400" height="16" fill="#2E7CDF"/>
<rect x="4" y="273" width="639" height="18" rx="6" stroke="#2E7CDF" stroke-width="2"/>
<path d="M15.152 263.168C14.048 263.168 13.056 262.976 12.176 262.592C11.312 262.192 10.632 261.648 10.136 260.96C9.64 260.256 9.384 259.448 9.368 258.536H11.696C11.776 259.32 12.096 259.984 12.656 260.528C13.232 261.056 14.064 261.32 15.152 261.32C16.192 261.32 17.008 261.064 17.6 260.552C18.208 260.024 18.512 259.352 18.512 258.536C18.512 257.896 18.336 257.376 17.984 256.976C17.632 256.576 17.192 256.272 16.664 256.064C16.136 255.856 15.424 255.632 14.528 255.392C13.424 255.104 12.536 254.816 11.864 254.528C11.208 254.24 10.64 253.792 10.16 253.184C9.696 252.56 9.464 251.728 9.464 250.688C9.464 249.776 9.696 248.968 10.16 248.264C10.624 247.56 11.272 247.016 12.104 246.632C12.952 246.248 13.92 246.056 15.008 246.056C16.576 246.056 17.856 246.448 18.848 247.232C19.856 248.016 20.424 249.056 20.552 250.352H18.152C18.072 249.712 17.736 249.152 17.144 248.672C16.552 248.176 15.768 247.928 14.792 247.928C13.88 247.928 13.136 248.168 12.56 248.648C11.984 249.112 11.696 249.768 11.696 250.616C11.696 251.224 11.864 251.72 12.2 252.104C12.552 252.488 12.976 252.784 13.472 252.992C13.984 253.184 14.696 253.408 15.608 253.664C16.712 253.968 17.6 254.272 18.272 254.576C18.944 254.864 19.52 255.32 20 255.944C20.48 256.552 20.72 257.384 20.72 258.44C20.72 259.256 20.504 260.024 20.072 260.744C19.64 261.464 19 262.048 18.152 262.496C17.304 262.944 16.304 263.168 15.152 263.168ZM23.1179 254.624C23.1179 252.992 23.4859 251.528 24.2219 250.232C24.9579 248.92 25.9579 247.896 27.2219 247.16C28.5019 246.424 29.9179 246.056 31.4699 246.056C33.2939 246.056 34.8859 246.496 36.2459 247.376C37.6059 248.256 38.5979 249.504 39.2219 251.12H36.6059C36.1419 250.112 35.4699 249.336 34.5899 248.792C33.7259 248.248 32.6859 247.976 31.4699 247.976C30.3019 247.976 29.2539 248.248 28.3259 248.792C27.3979 249.336 26.6699 250.112 26.1419 251.12C25.6139 252.112 25.3499 253.28 25.3499 254.624C25.3499 255.952 25.6139 257.12 26.1419 258.128C26.6699 259.12 27.3979 259.888 28.3259 260.432C29.2539 260.976 30.3019 261.248 31.4699 261.248C32.6859 261.248 33.7259 260.984 34.5899 260.456C35.4699 259.912 36.1419 259.136 36.6059 258.128H39.2219C38.5979 259.728 37.6059 260.968 36.2459 261.848C34.8859 262.712 33.2939 263.144 31.4699 263.144C29.9179 263.144 28.5019 262.784 27.2219 262.064C25.9579 261.328 24.9579 260.312 24.2219 259.016C23.4859 257.72 23.1179 256.256 23.1179 254.624ZM51.281 263L47.297 256.16H44.657V263H42.473V246.272H47.873C49.137 246.272 50.201 246.488 51.065 246.92C51.945 247.352 52.601 247.936 53.033 248.672C53.465 249.408 53.681 250.248 53.681 251.192C53.681 252.344 53.345 253.36 52.673 254.24C52.017 255.12 51.025 255.704 49.697 255.992L53.897 263H51.281ZM44.657 254.408H47.873C49.057 254.408 49.945 254.12 50.537 253.544C51.129 252.952 51.425 252.168 51.425 251.192C51.425 250.2 51.129 249.432 50.537 248.888C49.961 248.344 49.073 248.072 47.873 248.072H44.657V254.408ZM59.2106 246.272V256.856C59.2106 258.344 59.5706 259.448 60.2906 260.168C61.0266 260.888 62.0426 261.248 63.3386 261.248C64.6186 261.248 65.6186 260.888 66.3386 260.168C67.0746 259.448 67.4426 258.344 67.4426 256.856V246.272H69.6266V256.832C69.6266 258.224 69.3466 259.4 68.7866 260.36C68.2266 261.304 67.4666 262.008 66.5066 262.472C65.5626 262.936 64.4986 263.168 63.3146 263.168C62.1306 263.168 61.0586 262.936 60.0986 262.472C59.1546 262.008 58.4026 261.304 57.8426 260.36C57.2986 259.4 57.0266 258.224 57.0266 256.832V246.272H59.2106ZM90.2379 246.392V263H88.0539V250.616L82.5339 263H80.9979L75.4539 250.592V263H73.2699V246.392H75.6219L81.7659 260.12L87.9099 246.392H90.2379ZM102.524 252.272C102.956 251.52 103.596 250.896 104.444 250.4C105.308 249.888 106.308 249.632 107.444 249.632C108.612 249.632 109.668 249.912 110.612 250.472C111.572 251.032 112.324 251.824 112.868 252.848C113.412 253.856 113.684 255.032 113.684 256.376C113.684 257.704 113.412 258.888 112.868 259.928C112.324 260.968 111.572 261.776 110.612 262.352C109.668 262.928 108.612 263.216 107.444 263.216C106.324 263.216 105.332 262.968 104.468 262.472C103.62 261.96 102.972 261.328 102.524 260.576V269.24H100.34V249.848H102.524V252.272ZM111.452 256.376C111.452 255.384 111.252 254.52 110.852 253.784C110.452 253.048 109.908 252.488 109.22 252.104C108.548 251.72 107.804 251.528 106.988 251.528C106.188 251.528 105.444 251.728 104.756 252.128C104.084 252.512 103.54 253.08 103.124 253.832C102.724 254.568 102.524 255.424 102.524 256.4C102.524 257.392 102.724 258.264 103.124 259.016C103.54 259.752 104.084 260.32 104.756 260.72C105.444 261.104 106.188 261.296 106.988 261.296C107.804 261.296 108.548 261.104 109.22 260.72C109.908 260.32 110.452 259.752 110.852 259.016C111.252 258.264 111.452 257.384 111.452 256.376ZM118.743 251.984C119.127 251.232 119.671 250.648 120.375 250.232C121.095 249.816 121.967 249.608 122.991 249.608V251.864H122.415C119.967 251.864 118.743 253.192 118.743 255.848V263H116.559V249.848H118.743V251.984ZM131.248 263.216C130.016 263.216 128.896 262.936 127.888 262.376C126.896 261.816 126.112 261.024 125.536 260C124.976 258.96 124.696 257.76 124.696 256.4C124.696 255.056 124.984 253.872 125.56 252.848C126.152 251.808 126.952 251.016 127.96 250.472C128.968 249.912 130.096 249.632 131.344 249.632C132.592 249.632 133.72 249.912 134.728 250.472C135.736 251.016 136.528 251.8 137.104 252.824C137.696 253.848 137.992 255.04 137.992 256.4C137.992 257.76 137.688 258.96 137.08 260C136.488 261.024 135.68 261.816 134.656 262.376C133.632 262.936 132.496 263.216 131.248 263.216ZM131.248 261.296C132.032 261.296 132.768 261.112 133.456 260.744C134.144 260.376 134.696 259.824 135.112 259.088C135.544 258.352 135.76 257.456 135.76 256.4C135.76 255.344 135.552 254.448 135.136 253.712C134.72 252.976 134.176 252.432 133.504 252.08C132.832 251.712 132.104 251.528 131.32 251.528C130.52 251.528 129.784 251.712 129.112 252.08C128.456 252.432 127.928 252.976 127.528 253.712C127.128 254.448 126.928 255.344 126.928 256.4C126.928 257.472 127.12 258.376 127.504 259.112C127.904 259.848 128.432 260.4 129.088 260.768C129.744 261.12 130.464 261.296 131.248 261.296ZM142.04 247.712C141.624 247.712 141.272 247.568 140.984 247.28C140.712 246.992 140.576 246.64 140.576 246.224C140.576 245.808 140.712 245.456 140.984 245.168C141.272 244.88 141.624 244.736 142.04 244.736C142.456 244.736 142.8 244.88 143.072 245.168C143.36 245.456 143.504 245.808 143.504 246.224C143.504 246.64 143.36 246.992 143.072 247.28C142.8 247.568 142.456 247.712 142.04 247.712ZM143.12 265.856C143.12 267.024 142.824 267.88 142.232 268.424C141.64 268.968 140.776 269.24 139.64 269.24H138.368V267.392H139.28C139.888 267.392 140.312 267.272 140.552 267.032C140.808 266.792 140.936 266.384 140.936 265.808V249.848H143.12V265.856ZM158.817 255.92C158.817 256.336 158.793 256.776 158.745 257.24H148.233C148.313 258.536 148.753 259.552 149.553 260.288C150.369 261.008 151.353 261.368 152.505 261.368C153.449 261.368 154.233 261.152 154.857 260.72C155.497 260.272 155.945 259.68 156.201 258.944H158.553C158.201 260.208 157.497 261.24 156.441 262.04C155.385 262.824 154.073 263.216 152.505 263.216C151.257 263.216 150.137 262.936 149.145 262.376C148.169 261.816 147.401 261.024 146.841 260C146.281 258.96 146.001 257.76 146.001 256.4C146.001 255.04 146.273 253.848 146.817 252.824C147.361 251.8 148.121 251.016 149.097 250.472C150.089 249.912 151.225 249.632 152.505 249.632C153.753 249.632 154.857 249.904 155.817 250.448C156.777 250.992 157.513 251.744 158.025 252.704C158.553 253.648 158.817 254.72 158.817 255.92ZM156.561 255.464C156.561 254.632 156.377 253.92 156.009 253.328C155.641 252.72 155.137 252.264 154.497 251.96C153.873 251.64 153.177 251.48 152.409 251.48C151.305 251.48 150.361 251.832 149.577 252.536C148.809 253.24 148.369 254.216 148.257 255.464H156.561ZM160.884 256.4C160.884 255.04 161.156 253.856 161.7 252.848C162.244 251.824 162.996 251.032 163.956 250.472C164.932 249.912 166.044 249.632 167.292 249.632C168.908 249.632 170.236 250.024 171.276 250.808C172.332 251.592 173.028 252.68 173.364 254.072H171.012C170.788 253.272 170.348 252.64 169.692 252.176C169.052 251.712 168.252 251.48 167.292 251.48C166.044 251.48 165.036 251.912 164.268 252.776C163.5 253.624 163.116 254.832 163.116 256.4C163.116 257.984 163.5 259.208 164.268 260.072C165.036 260.936 166.044 261.368 167.292 261.368C168.252 261.368 169.052 261.144 169.692 260.696C170.332 260.248 170.772 259.608 171.012 258.776H173.364C173.012 260.12 172.308 261.2 171.252 262.016C170.196 262.816 168.876 263.216 167.292 263.216C166.044 263.216 164.932 262.936 163.956 262.376C162.996 261.816 162.244 261.024 161.7 260C161.156 258.976 160.884 257.776 160.884 256.4ZM178.942 251.648V259.4C178.942 260.04 179.078 260.496 179.35 260.768C179.622 261.024 180.094 261.152 180.766 261.152H182.374V263H180.406C179.19 263 178.278 262.72 177.67 262.16C177.062 261.6 176.758 260.68 176.758 259.4V251.648H175.054V249.848H176.758V246.536H178.942V249.848H182.374V251.648H178.942ZM207.234 249.608C208.258 249.608 209.17 249.824 209.97 250.256C210.77 250.672 211.402 251.304 211.866 252.152C212.33 253 212.562 254.032 212.562 255.248V263H210.402V255.56C210.402 254.248 210.074 253.248 209.418 252.56C208.778 251.856 207.906 251.504 206.802 251.504C205.666 251.504 204.762 251.872 204.09 252.608C203.418 253.328 203.082 254.376 203.082 255.752V263H200.922V255.56C200.922 254.248 200.594 253.248 199.938 252.56C199.298 251.856 198.426 251.504 197.322 251.504C196.186 251.504 195.282 251.872 194.61 252.608C193.938 253.328 193.602 254.376 193.602 255.752V263H191.418V249.848H193.602V251.744C194.034 251.056 194.61 250.528 195.33 250.16C196.066 249.792 196.874 249.608 197.754 249.608C198.858 249.608 199.834 249.856 200.682 250.352C201.53 250.848 202.162 251.576 202.578 252.536C202.946 251.608 203.554 250.888 204.402 250.376C205.25 249.864 206.194 249.608 207.234 249.608ZM215.329 256.376C215.329 255.032 215.601 253.856 216.145 252.848C216.689 251.824 217.433 251.032 218.377 250.472C219.337 249.912 220.401 249.632 221.569 249.632C222.721 249.632 223.721 249.88 224.569 250.376C225.417 250.872 226.049 251.496 226.465 252.248V249.848H228.673V263H226.465V260.552C226.033 261.32 225.385 261.96 224.521 262.472C223.673 262.968 222.681 263.216 221.545 263.216C220.377 263.216 219.321 262.928 218.377 262.352C217.433 261.776 216.689 260.968 216.145 259.928C215.601 258.888 215.329 257.704 215.329 256.376ZM226.465 256.4C226.465 255.408 226.265 254.544 225.865 253.808C225.465 253.072 224.921 252.512 224.233 252.128C223.561 251.728 222.817 251.528 222.001 251.528C221.185 251.528 220.441 251.72 219.769 252.104C219.097 252.488 218.561 253.048 218.161 253.784C217.761 254.52 217.561 255.384 217.561 256.376C217.561 257.384 217.761 258.264 218.161 259.016C218.561 259.752 219.097 260.32 219.769 260.72C220.441 261.104 221.185 261.296 222.001 261.296C222.817 261.296 223.561 261.104 224.233 260.72C224.921 260.32 225.465 259.752 225.865 259.016C226.265 258.264 226.465 257.392 226.465 256.4ZM238.772 249.608C240.372 249.608 241.668 250.096 242.66 251.072C243.652 252.032 244.148 253.424 244.148 255.248V263H241.988V255.56C241.988 254.248 241.66 253.248 241.004 252.56C240.348 251.856 239.452 251.504 238.316 251.504C237.164 251.504 236.244 251.864 235.556 252.584C234.884 253.304 234.548 254.352 234.548 255.728V263H232.364V249.848H234.548V251.72C234.98 251.048 235.564 250.528 236.3 250.16C237.052 249.792 237.876 249.608 238.772 249.608ZM246.899 256.376C246.899 255.032 247.171 253.856 247.715 252.848C248.259 251.824 249.003 251.032 249.947 250.472C250.907 249.912 251.971 249.632 253.139 249.632C254.291 249.632 255.291 249.88 256.139 250.376C256.987 250.872 257.619 251.496 258.035 252.248V249.848H260.243V263H258.035V260.552C257.603 261.32 256.955 261.96 256.091 262.472C255.243 262.968 254.251 263.216 253.115 263.216C251.947 263.216 250.891 262.928 249.947 262.352C249.003 261.776 248.259 260.968 247.715 259.928C247.171 258.888 246.899 257.704 246.899 256.376ZM258.035 256.4C258.035 255.408 257.835 254.544 257.435 253.808C257.035 253.072 256.491 252.512 255.803 252.128C255.131 251.728 254.387 251.528 253.571 251.528C252.755 251.528 252.011 251.72 251.339 252.104C250.667 252.488 250.131 253.048 249.731 253.784C249.331 254.52 249.131 255.384 249.131 256.376C249.131 257.384 249.331 258.264 249.731 259.016C250.131 259.752 250.667 260.32 251.339 260.72C252.011 261.104 252.755 261.296 253.571 261.296C254.387 261.296 255.131 261.104 255.803 260.72C256.491 260.32 257.035 259.752 257.435 259.016C257.835 258.264 258.035 257.392 258.035 256.4ZM269.358 249.632C270.494 249.632 271.486 249.88 272.334 250.376C273.198 250.872 273.838 251.496 274.254 252.248V249.848H276.462V263.288C276.462 264.488 276.206 265.552 275.694 266.48C275.182 267.424 274.446 268.16 273.486 268.688C272.542 269.216 271.438 269.48 270.174 269.48C268.446 269.48 267.006 269.072 265.854 268.256C264.702 267.44 264.022 266.328 263.814 264.92H265.974C266.214 265.72 266.71 266.36 267.462 266.84C268.214 267.336 269.118 267.584 270.174 267.584C271.374 267.584 272.35 267.208 273.102 266.456C273.87 265.704 274.254 264.648 274.254 263.288V260.528C273.822 261.296 273.182 261.936 272.334 262.448C271.486 262.96 270.494 263.216 269.358 263.216C268.19 263.216 267.126 262.928 266.166 262.352C265.222 261.776 264.478 260.968 263.934 259.928C263.39 258.888 263.118 257.704 263.118 256.376C263.118 255.032 263.39 253.856 263.934 252.848C264.478 251.824 265.222 251.032 266.166 250.472C267.126 249.912 268.19 249.632 269.358 249.632ZM274.254 256.4C274.254 255.408 274.054 254.544 273.654 253.808C273.254 253.072 272.71 252.512 272.022 252.128C271.35 251.728 270.606 251.528 269.79 251.528C268.974 251.528 268.23 251.72 267.558 252.104C266.886 252.488 266.35 253.048 265.95 253.784C265.55 254.52 265.35 255.384 265.35 256.376C265.35 257.384 265.55 258.264 265.95 259.016C266.35 259.752 266.886 260.32 267.558 260.72C268.23 261.104 268.974 261.296 269.79 261.296C270.606 261.296 271.35 261.104 272.022 260.72C272.71 260.32 273.254 259.752 273.654 259.016C274.054 258.264 274.254 257.392 274.254 256.4ZM292.153 255.92C292.153 256.336 292.129 256.776 292.081 257.24H281.569C281.649 258.536 282.089 259.552 282.889 260.288C283.705 261.008 284.689 261.368 285.841 261.368C286.785 261.368 287.569 261.152 288.193 260.72C288.833 260.272 289.281 259.68 289.537 258.944H291.889C291.537 260.208 290.833 261.24 289.777 262.04C288.721 262.824 287.409 263.216 285.841 263.216C284.593 263.216 283.473 262.936 282.481 262.376C281.505 261.816 280.737 261.024 280.177 260C279.617 258.96 279.337 257.76 279.337 256.4C279.337 255.04 279.609 253.848 280.153 252.824C280.697 251.8 281.457 251.016 282.433 250.472C283.425 249.912 284.561 249.632 285.841 249.632C287.089 249.632 288.193 249.904 289.153 250.448C290.113 250.992 290.849 251.744 291.361 252.704C291.889 253.648 292.153 254.72 292.153 255.92ZM289.897 255.464C289.897 254.632 289.713 253.92 289.345 253.328C288.977 252.72 288.473 252.264 287.833 251.96C287.209 251.64 286.513 251.48 285.745 251.48C284.641 251.48 283.697 251.832 282.913 252.536C282.145 253.24 281.705 254.216 281.593 255.464H289.897ZM310.852 249.608C311.876 249.608 312.788 249.824 313.588 250.256C314.388 250.672 315.02 251.304 315.484 252.152C315.948 253 316.18 254.032 316.18 255.248V263H314.02V255.56C314.02 254.248 313.692 253.248 313.036 252.56C312.396 251.856 311.524 251.504 310.42 251.504C309.284 251.504 308.38 251.872 307.708 252.608C307.036 253.328 306.7 254.376 306.7 255.752V263H304.54V255.56C304.54 254.248 304.212 253.248 303.556 252.56C302.916 251.856 302.044 251.504 300.94 251.504C299.804 251.504 298.9 251.872 298.228 252.608C297.556 253.328 297.22 254.376 297.22 255.752V263H295.036V249.848H297.22V251.744C297.652 251.056 298.228 250.528 298.948 250.16C299.684 249.792 300.492 249.608 301.372 249.608C302.476 249.608 303.452 249.856 304.3 250.352C305.148 250.848 305.78 251.576 306.196 252.536C306.564 251.608 307.172 250.888 308.02 250.376C308.868 249.864 309.812 249.608 310.852 249.608ZM331.762 255.92C331.762 256.336 331.738 256.776 331.69 257.24H321.178C321.258 258.536 321.698 259.552 322.498 260.288C323.314 261.008 324.298 261.368 325.45 261.368C326.394 261.368 327.178 261.152 327.802 260.72C328.442 260.272 328.89 259.68 329.146 258.944H331.498C331.146 260.208 330.442 261.24 329.386 262.04C328.33 262.824 327.018 263.216 325.45 263.216C324.202 263.216 323.082 262.936 322.09 262.376C321.114 261.816 320.346 261.024 319.786 260C319.226 258.96 318.946 257.76 318.946 256.4C318.946 255.04 319.218 253.848 319.762 252.824C320.306 251.8 321.066 251.016 322.042 250.472C323.034 249.912 324.17 249.632 325.45 249.632C326.698 249.632 327.802 249.904 328.762 250.448C329.722 250.992 330.458 251.744 330.97 252.704C331.498 253.648 331.762 254.72 331.762 255.92ZM329.506 255.464C329.506 254.632 329.322 253.92 328.954 253.328C328.586 252.72 328.082 252.264 327.442 251.96C326.818 251.64 326.122 251.48 325.354 251.48C324.25 251.48 323.306 251.832 322.522 252.536C321.754 253.24 321.314 254.216 321.202 255.464H329.506ZM341.053 249.608C342.653 249.608 343.949 250.096 344.941 251.072C345.933 252.032 346.429 253.424 346.429 255.248V263H344.269V255.56C344.269 254.248 343.941 253.248 343.285 252.56C342.629 251.856 341.733 251.504 340.597 251.504C339.445 251.504 338.525 251.864 337.837 252.584C337.165 253.304 336.829 254.352 336.829 255.728V263H334.645V249.848H336.829V251.72C337.261 251.048 337.845 250.528 338.581 250.16C339.333 249.792 340.157 249.608 341.053 249.608ZM352.66 251.648V259.4C352.66 260.04 352.796 260.496 353.068 260.768C353.34 261.024 353.812 261.152 354.484 261.152H356.092V263H354.124C352.908 263 351.996 262.72 351.388 262.16C350.78 261.6 350.476 260.68 350.476 259.4V251.648H348.772V249.848H350.476V246.536H352.66V249.848H356.092V251.648H352.66Z" fill="black"/>
<rect x="5" y="353" width="318" height="16" fill="#2E7CDF"/>
<rect x="4" y="352" width="639" height="18" rx="6" stroke="#2E7CDF" stroke-width="2"/>
<path d="M15.056 325.272C16.88 325.272 18.456 325.616 19.784 326.304C21.128 326.976 22.152 327.944 22.856 329.208C23.576 330.472 23.936 331.96 23.936 333.672C23.936 335.384 23.576 336.872 22.856 338.136C22.152 339.384 21.128 340.344 19.784 341.016C18.456 341.672 16.88 342 15.056 342H9.848V325.272H15.056ZM15.056 340.2C17.216 340.2 18.864 339.632 20 338.496C21.136 337.344 21.704 335.736 21.704 333.672C21.704 331.592 21.128 329.968 19.976 328.8C18.84 327.632 17.2 327.048 15.056 327.048H12.032V340.2H15.056ZM38.8168 334.92C38.8168 335.336 38.7928 335.776 38.7448 336.24H28.2328C28.3128 337.536 28.7528 338.552 29.5528 339.288C30.3688 340.008 31.3528 340.368 32.5048 340.368C33.4488 340.368 34.2328 340.152 34.8568 339.72C35.4968 339.272 35.9448 338.68 36.2008 337.944H38.5528C38.2008 339.208 37.4968 340.24 36.4408 341.04C35.3848 341.824 34.0728 342.216 32.5048 342.216C31.2568 342.216 30.1368 341.936 29.1448 341.376C28.1688 340.816 27.4008 340.024 26.8408 339C26.2808 337.96 26.0008 336.76 26.0008 335.4C26.0008 334.04 26.2728 332.848 26.8168 331.824C27.3608 330.8 28.1208 330.016 29.0968 329.472C30.0888 328.912 31.2248 328.632 32.5048 328.632C33.7528 328.632 34.8568 328.904 35.8168 329.448C36.7768 329.992 37.5128 330.744 38.0248 331.704C38.5528 332.648 38.8168 333.72 38.8168 334.92ZM36.5608 334.464C36.5608 333.632 36.3768 332.92 36.0088 332.328C35.6408 331.72 35.1368 331.264 34.4968 330.96C33.8728 330.64 33.1768 330.48 32.4088 330.48C31.3048 330.48 30.3608 330.832 29.5768 331.536C28.8088 332.24 28.3688 333.216 28.2568 334.464H36.5608ZM46.5956 339.984L50.6756 328.848H53.0036L47.8436 342H45.2996L40.1396 328.848H42.4916L46.5956 339.984ZM62.7367 342.168C61.1847 342.168 59.7687 341.808 58.4887 341.088C57.2087 340.352 56.1927 339.336 55.4407 338.04C54.7047 336.728 54.3367 335.256 54.3367 333.624C54.3367 331.992 54.7047 330.528 55.4407 329.232C56.1927 327.92 57.2087 326.904 58.4887 326.184C59.7687 325.448 61.1847 325.08 62.7367 325.08C64.3047 325.08 65.7287 325.448 67.0087 326.184C68.2887 326.904 69.2967 327.912 70.0327 329.208C70.7687 330.504 71.1367 331.976 71.1367 333.624C71.1367 335.272 70.7687 336.744 70.0327 338.04C69.2967 339.336 68.2887 340.352 67.0087 341.088C65.7287 341.808 64.3047 342.168 62.7367 342.168ZM62.7367 340.272C63.9047 340.272 64.9527 340 65.8807 339.456C66.8247 338.912 67.5607 338.136 68.0887 337.128C68.6327 336.12 68.9047 334.952 68.9047 333.624C68.9047 332.28 68.6327 331.112 68.0887 330.12C67.5607 329.112 66.8327 328.336 65.9047 327.792C64.9767 327.248 63.9207 326.976 62.7367 326.976C61.5527 326.976 60.4967 327.248 59.5687 327.792C58.6407 328.336 57.9047 329.112 57.3607 330.12C56.8327 331.112 56.5687 332.28 56.5687 333.624C56.5687 334.952 56.8327 336.12 57.3607 337.128C57.9047 338.136 58.6407 338.912 59.5687 339.456C60.5127 340 61.5687 340.272 62.7367 340.272ZM76.2039 331.272C76.6359 330.52 77.2759 329.896 78.1239 329.4C78.9879 328.888 79.9879 328.632 81.1239 328.632C82.2919 328.632 83.3479 328.912 84.2919 329.472C85.2519 330.032 86.0039 330.824 86.5479 331.848C87.0919 332.856 87.3639 334.032 87.3639 335.376C87.3639 336.704 87.0919 337.888 86.5479 338.928C86.0039 339.968 85.2519 340.776 84.2919 341.352C83.3479 341.928 82.2919 342.216 81.1239 342.216C80.0039 342.216 79.0119 341.968 78.1479 341.472C77.2999 340.96 76.6519 340.328 76.2039 339.576V348.24H74.0199V328.848H76.2039V331.272ZM85.1319 335.376C85.1319 334.384 84.9319 333.52 84.5319 332.784C84.1319 332.048 83.5879 331.488 82.8999 331.104C82.2279 330.72 81.4839 330.528 80.6679 330.528C79.8679 330.528 79.1239 330.728 78.4359 331.128C77.7639 331.512 77.2199 332.08 76.8039 332.832C76.4039 333.568 76.2039 334.424 76.2039 335.4C76.2039 336.392 76.4039 337.264 76.8039 338.016C77.2199 338.752 77.7639 339.32 78.4359 339.72C79.1239 340.104 79.8679 340.296 80.6679 340.296C81.4839 340.296 82.2279 340.104 82.8999 339.72C83.5879 339.32 84.1319 338.752 84.5319 338.016C84.9319 337.264 85.1319 336.384 85.1319 335.376ZM94.8946 342.216C93.8866 342.216 92.9826 342.048 92.1826 341.712C91.3826 341.36 90.7506 340.88 90.2866 340.272C89.8226 339.648 89.5666 338.936 89.5186 338.136H91.7746C91.8386 338.792 92.1426 339.328 92.6866 339.744C93.2466 340.16 93.9746 340.368 94.8706 340.368C95.7026 340.368 96.3586 340.184 96.8386 339.816C97.3186 339.448 97.5586 338.984 97.5586 338.424C97.5586 337.848 97.3026 337.424 96.7906 337.152C96.2786 336.864 95.4866 336.584 94.4146 336.312C93.4386 336.056 92.6386 335.8 92.0146 335.544C91.4066 335.272 90.8786 334.88 90.4306 334.368C89.9986 333.84 89.7826 333.152 89.7826 332.304C89.7826 331.632 89.9826 331.016 90.3826 330.456C90.7826 329.896 91.3506 329.456 92.0866 329.136C92.8226 328.8 93.6626 328.632 94.6066 328.632C96.0626 328.632 97.2386 329 98.1346 329.736C99.0306 330.472 99.5106 331.48 99.5746 332.76H97.3906C97.3426 332.072 97.0626 331.52 96.5506 331.104C96.0546 330.688 95.3826 330.48 94.5346 330.48C93.7506 330.48 93.1266 330.648 92.6626 330.984C92.1986 331.32 91.9666 331.76 91.9666 332.304C91.9666 332.736 92.1026 333.096 92.3746 333.384C92.6626 333.656 93.0146 333.88 93.4306 334.056C93.8626 334.216 94.4546 334.4 95.2066 334.608C96.1506 334.864 96.9186 335.12 97.5106 335.376C98.1026 335.616 98.6066 335.984 99.0226 336.48C99.4546 336.976 99.6786 337.624 99.6946 338.424C99.6946 339.144 99.4946 339.792 99.0946 340.368C98.6946 340.944 98.1266 341.4 97.3906 341.736C96.6706 342.056 95.8386 342.216 94.8946 342.216Z" fill="black"/>
</svg>
