<svg width="99" height="99" viewBox="0 0 99 99" fill="none" xmlns="http://www.w3.org/2000/svg">
<path d="M77.9651 12.3696H20.5171C15.9829 12.3696 12.3103 16.0598 12.3103 20.6159V78.34C12.3103 82.8961 15.9829 86.5863 20.5171 86.5863H51.7894V57.8851H42.175V46.6495H51.7894V38.3826C51.7894 28.8004 57.6203 23.5764 66.1309 23.5764C68.9992 23.5681 71.8634 23.7165 74.7152 24.0093V34.0285H68.8555C64.2187 34.0285 63.3159 36.2303 63.3159 39.4793V46.633H74.3952L72.9549 57.8686H63.2503V86.5863H77.9651C82.4994 86.5863 86.172 82.8961 86.172 78.34V20.6159C86.172 16.0598 82.4994 12.3696 77.9651 12.3696Z" fill="white"/>
</svg>
