<svg width="73" height="73" viewBox="0 0 73 73" fill="none" xmlns="http://www.w3.org/2000/svg">
<path d="M65.9191 0.193848H6.82968C3.20225 0.193848 0.264191 3.14602 0.264191 6.79089V66.1642C0.264191 69.8091 3.20225 72.7613 6.82968 72.7613H65.9191C69.5465 72.7613 72.4845 69.8091 72.4845 66.1642V6.79089C72.4845 3.14602 69.5465 0.193848 65.9191 0.193848ZM23.0924 59.5672H13.4083V28.2577H23.0924V59.5672ZM18.1519 23.7816C15.03 23.7816 12.5055 21.2384 12.5055 18.1081C12.5055 14.9778 15.0333 12.438 18.1519 12.438C21.2639 12.438 23.7949 14.9811 23.7949 18.1081C23.7949 21.2384 21.2639 23.7816 18.1519 23.7816ZM59.3667 59.5672H49.6892V44.3412C49.6892 40.7096 49.6235 36.0389 44.6567 36.0389C39.6177 36.0389 38.843 39.9938 38.843 44.0774V59.5672H29.1655V28.2577H38.4556V32.5358H38.5869C39.8803 30.0751 43.0383 27.4792 47.7491 27.4792C57.5546 27.4792 59.3667 33.9641 59.3667 42.3951V59.5672Z" fill="white"/>
</svg>
