<svg width="79" height="80" viewBox="0 0 79 80" fill="none" xmlns="http://www.w3.org/2000/svg">
<path d="M23.1634 0.822266C10.4953 0.822266 0.190582 11.1861 0.190582 23.9184V56.9036C0.190582 69.6325 10.5048 79.9868 23.1762 79.9868H56.0036C68.6717 79.9868 78.9764 69.623 78.9764 56.8907V23.9055C78.9764 11.1765 68.6622 0.822266 55.9908 0.822266H23.1634ZM62.5627 14.0163C64.3748 14.0163 65.8454 15.4941 65.8454 17.3149C65.8454 19.1357 64.3748 20.6134 62.5627 20.6134C60.7506 20.6134 59.28 19.1357 59.28 17.3149C59.28 15.4941 60.7506 14.0163 62.5627 14.0163ZM39.5835 20.6134C50.4461 20.6134 59.28 29.4897 59.28 40.4045C59.28 51.3193 50.4461 60.1956 39.5835 60.1956C28.7209 60.1956 19.887 51.3193 19.887 40.4045C19.887 29.4897 28.7209 20.6134 39.5835 20.6134ZM39.5835 27.2104C36.101 27.2104 32.761 28.6005 30.2985 31.0749C27.836 33.5493 26.4525 36.9052 26.4525 40.4045C26.4525 43.9038 27.836 47.2598 30.2985 49.7341C32.761 52.2085 36.101 53.5986 39.5835 53.5986C43.0661 53.5986 46.406 52.2085 48.8685 49.7341C51.331 47.2598 52.7145 43.9038 52.7145 40.4045C52.7145 36.9052 51.331 33.5493 48.8685 31.0749C46.406 28.6005 43.0661 27.2104 39.5835 27.2104Z" fill="white"/>
</svg>
